<svg clip-rule="evenodd" fill-rule="evenodd" stroke-linejoin="round" stroke-miterlimit="2" viewBox="0 0 32 32" xmlns="http://www.w3.org/2000/svg"><path d="m0 0h32v32h-32z" fill="#fff"/><path d="m4 4v2h2v-2zm4 0v2h2v-2zm4 0v2h2v-2zm4 0v2h2v-2zm4 0v2h2v-2zm4 0v2h2v-2zm-20 4v2h2v-2zm20 0v2h2v-2zm-20 4v2h2v-2zm20 0v2h2v-2zm-9.5 1-.312.406-1.188 1.594h-5v13h20v-13h-5l-1.187-1.594-.313-.406zm1 2h5l1.188 1.594.312.406h4v9h-16v-9h4l.313-.406zm-11.5 1v2h2v-2zm14 1c-2.197 0-4 1.803-4 4s1.803 4 4 4 4-1.803 4-4-1.803-4-4-4zm0 2c1.116 0 2 .884 2 2s-.884 2-2 2-2-.884-2-2 .884-2 2-2zm-14 1v2h2v-2z" fill="#d5d8dd" fill-rule="nonzero" transform="matrix(.612706 0 0 .612706 6.19671 6.19671)"/></svg>