<svg clip-rule="evenodd" fill-rule="evenodd" stroke-linejoin="round" stroke-miterlimit="2" viewBox="0 0 32 32" xmlns="http://www.w3.org/2000/svg"><g fill-rule="nonzero"><path d="m4 4v2h2v-2zm4 0v2h2v-2zm4 0v2h2v-2zm4 0v2h2v-2zm4 0v2h2v-2zm4 0v2h2v-2zm-20 4v2h2v-2zm20 0v2h2v-2zm-20 4v2h2v-2zm20 0v2h2v-2zm-9.5 1-.312.406-1.188 1.594h-5v13h20v-13h-5l-1.187-1.594-.313-.406zm1 2h5l1.188 1.594.312.406h4v9h-16v-9h4l.313-.406zm-11.5 1v2h2v-2zm14 1c-2.197 0-4 1.803-4 4s1.803 4 4 4 4-1.803 4-4-1.803-4-4-4zm0 2c1.116 0 2 .884 2 2s-.884 2-2 2-2-.884-2-2 .884-2 2-2zm-14 1v2h2v-2z" fill="#d5d8dd" fill-opacity=".8" transform="matrix(.612706 0 0 .612706 6.19671 6.19671)"/><path d="m324.25 243.813 150.844-150.844c16.667-16.667 16.667-43.688 0-60.328l-20.109-20.11c-16.672-16.672-43.693-16.672-60.334 0l-150.838 150.839-150.844-150.87c-16.667-16.667-43.688-16.667-60.328 0l-20.141 20.109c-16.667 16.672-16.667 43.693 0 60.334l150.87 150.87-150.839 150.838c-16.672 16.672-16.672 43.693 0 60.334l20.11 20.109c16.666 16.667 43.687 16.667 60.328 0l150.844-150.844 150.838 150.844c16.672 16.667 43.693 16.667 60.334 0l20.109-20.109c16.667-16.672 16.667-43.693 0-60.334z" fill="#f3a0a1" transform="matrix(.00926345 0 0 .00926345 18.4508 7.80696)"/></g></svg>