<?xml version="1.0" encoding="UTF-8" standalone="no"?>
<!DOCTYPE svg PUBLIC "-//W3C//DTD SVG 1.1//EN" "http://www.w3.org/Graphics/SVG/1.1/DTD/svg11.dtd">
<svg width="100%" height="100%" viewBox="0 0 980 605" version="1.1" xmlns="http://www.w3.org/2000/svg" xmlns:xlink="http://www.w3.org/1999/xlink" xml:space="preserve" xmlns:serif="http://www.serif.com/" style="fill-rule:evenodd;clip-rule:evenodd;stroke-linejoin:round;stroke-miterlimit:2;">
    <g id="Artboard1" transform="matrix(1,0,0,1,-10,-197.529)">
        <rect x="10" y="197.529" width="980" height="604.998" style="fill:none;"/>
        <clipPath id="_clip1">
            <rect x="10" y="197.529" width="980" height="604.998"/>
        </clipPath>
        <g clip-path="url(#_clip1)">
            <g transform="matrix(1,0,0,1,0,0.52906)">
                <path d="M10,501.6C10,501.6 446,1174.6 990,507.7C990,507.7 540.6,-186.1 10,501.6ZM500,734.5C370.4,734.5 265.5,629.4 265.5,500C265.5,370.6 370.4,265.6 500,265.6C629.6,265.6 734.5,370.5 734.5,500.1C734.5,629.6 629.6,734.5 500,734.5Z" style="fill-rule:nonzero;"/>
            </g>
            <g transform="matrix(1,0,0,1,0,0.52906)">
                <path d="M403,500C403,553.6 446.4,597 500,597C553.6,597 597,553.6 597,500C597,446.4 553.6,402.9 500,402.9C446.4,402.9 403,446.4 403,500Z" style="fill-rule:nonzero;"/>
            </g>
        </g>
    </g>
</svg>
