<?xml version="1.0" encoding="UTF-8" standalone="no"?>
<!DOCTYPE svg PUBLIC "-//W3C//DTD SVG 1.1//EN" "http://www.w3.org/Graphics/SVG/1.1/DTD/svg11.dtd">
<svg width="100%" height="100%" viewBox="0 0 32 32" version="1.1" xmlns="http://www.w3.org/2000/svg" xmlns:xlink="http://www.w3.org/1999/xlink" xml:space="preserve" xmlns:serif="http://www.serif.com/" style="fill-rule:evenodd;clip-rule:evenodd;stroke-linejoin:round;stroke-miterlimit:2;">
    <g transform="matrix(0.612706,0,0,0.612706,6.19671,6.19671)">
        <path d="M4,4L4,6L6,6L6,4L4,4ZM8,4L8,6L10,6L10,4L8,4ZM12,4L12,6L14,6L14,4L12,4ZM16,4L16,6L18,6L18,4L16,4ZM20,4L20,6L22,6L22,4L20,4ZM24,4L24,6L26,6L26,4L24,4ZM4,8L4,10L6,10L6,8L4,8ZM24,8L24,10L26,10L26,8L24,8ZM4,12L4,14L6,14L6,12L4,12ZM24,12L24,14L26,14L26,12L24,12ZM14.5,13L14.188,13.406L13,15L8,15L8,28L28,28L28,15L23,15L21.813,13.406L21.5,13L14.5,13ZM15.5,15L20.5,15L21.688,16.594L22,17L26,17L26,26L10,26L10,17L14,17L14.313,16.594L15.5,15ZM4,16L4,18L6,18L6,16L4,16ZM18,17C15.803,17 14,18.803 14,21C14,23.197 15.803,25 18,25C20.197,25 22,23.197 22,21C22,18.803 20.197,17 18,17ZM18,19C19.116,19 20,19.884 20,21C20,22.116 19.116,23 18,23C16.884,23 16,22.116 16,21C16,19.884 16.884,19 18,19ZM4,20L4,22L6,22L6,20L4,20Z" style="fill:rgb(213,216,221);fill-rule:nonzero;"/>
    </g>
</svg>
