<?xml version="1.0" encoding="UTF-8" standalone="no"?>
<!DOCTYPE svg PUBLIC "-//W3C//DTD SVG 1.1//EN" "http://www.w3.org/Graphics/SVG/1.1/DTD/svg11.dtd">
<svg fill="none" height="452" viewBox="0 0 452 452" width="452" xmlns="http://www.w3.org/2000/svg" xmlns:xlink="http://www.w3.org/1999/xlink"><linearGradient id="a" gradientUnits="userSpaceOnUse" x1="140.551" x2="387.678" y1="325.394" y2="36.6996"><stop offset="0" stop-color="#1b1b1b"/><stop offset=".83" stop-color="#323232"/></linearGradient><path d="m225.802 451.605c124.708 0 225.803-101.095 225.803-225.803 0-124.707-101.095-225.802-225.803-225.802-124.707 0-225.802 101.095-225.802 225.802 0 124.708 101.095 225.803 225.802 225.803z" fill="url(#a)"/><path d="m87.5651 404.358c.7856-.193 1.51-.427 2.0181-.829.7657-.629 1.6764-.709 2.572-.788.9-.079 1.7846-.157 2.4914-.789 1.19-1.053 2.8263-1.053 4.2424-.529 1.999.845 3.647.63 4.944-.839.384-.412.869-.716 1.406-.882.538-.166 1.11-.188 1.659-.064 2.588.315 4.587-.316 5.295-2.946.096-.335.497-.675.833-.959.081-.069.158-.134.226-.195.885.332.977.994 1.064 1.622.133.96.255 1.842 3.179 1.353 1.312-1.549 2.223-2.696 3.316-4.073.393-.495.81-1.019 1.277-1.603.101-.378.582-.75 1.358-1.352.093-.071.189-.146.29-.225.349.367.729.732 1.095 1.084.37.356.727.699 1.023 1.016 4.124-.315 7.89-.63 11.305-2.415.597-.333 1.338-.454 2.101-.579.438-.072.884-.145 1.315-.26.137-.025.293-.044.456-.064.54-.066 1.154-.141 1.424-.466 1.326-1.244 3.016-1.672 4.701-2.099 1.014-.257 2.026-.513 2.957-.947.518-.248 1.043-.489 1.568-.729 2.808-1.287 5.614-2.572 7.499-5.049.067-.12.248-.173.454-.233.16-.047.336-.098.486-.189.322.228.675.425 1.061.641.328.183.68.38 1.058.62.49-.317.998-.62 1.51-.925.84-.502 1.691-1.009 2.494-1.597.826-.657 1.583-1.414 2.443-2.274.379-.378.777-.777 1.21-1.195.593-.227 1.322-.25 2.096-.274 1.378-.044 2.895-.091 4.027-1.303-.065-.284-.145-.564-.238-.839-1.19-2.315-1.19-3.046.595-4.308.06-.045.119-.09.179-.136 1.467-1.112 2.858-2.166 5.122-1.863.731.144 1.518-.061 2.322-.27.362-.094.728-.189 1.094-.254.356.12.594.39.829.656.386.437.764.864 1.64.606.939-.837.687-1.712.402-2.699-.18-.626-.373-1.297-.283-2.031.668-.512 1.346-1.032 2.032-1.558 2.697-2.068 5.515-4.229 8.333-6.326.495-.441 1.125-.702 1.787-.74s1.318.15 1.86.531c-.19.341-.414.682-.639 1.023-.191.29-.381.58-.551.87.747.181 1.529.148 2.258-.094.729-.241 1.375-.683 1.865-1.275.336-.338.615-.728.827-1.154 1.411-2.838 3.767-4.939 6.242-6.831.521-.402 1.018-.835 1.514-1.268 1.97-1.716 3.927-3.422 7.316-3.147.471-.097.893-.358 1.19-.737 1.072-.923 2.093-1.905 3.058-2.94.493-.572.948-1.167 1.402-1.759.961-1.255 1.914-2.498 3.192-3.501.576-.474 1.063-1.036 1.548-1.598 1.019-1.177 2.035-2.351 3.872-2.709.232 0 .47-.417.595-.732.286-1.027 1.119-1.565 1.99-2.127.2-.129.401-.259.598-.396.093-.064.186-.128.28-.192 1.46-1.002 3.066-2.105 3.844-3.491.732-1.496 1.936-2.661 3.104-3.789.142-.138.284-.275.424-.412.753-.839 1.439-1.741 2.095-2.606.168-.221.334-.44.499-.654.38-.661.855-1.263 1.41-1.785 1.98-1.326 3.499-3.063 5-4.781.642-.734 1.28-1.464 1.95-2.157 2.475-2.624 4.236-5.676 4.712-9.246.113-.839.595-2 1.291-2.315 2.621-1.095 3.932-3.204 5.239-5.306.574-.923 1.147-1.845 1.83-2.679.638-.854 1.007-1.88 1.059-2.945.39-2.412 1.293-4.645 2.193-6.873.472-1.169.944-2.336 1.341-3.528.349-.993.866-1.919 1.53-2.737 2.945-3.361 4.944-7.039 5.414-11.346.075-.924.471-1.803.872-2.694.24-.532.481-1.068.657-1.62.595-1.363 1.19-2.731 1.785-4.201.307-.73.547-1.479.788-2.231.314-.982.63-1.968 1.098-2.921 1.327-2.85 2.315-5.846 2.946-8.925 1.174-4.916 3.079-9.627 5.652-13.977.969-1.545 1.647-3.256 1.999-5.046.677-3.385 2.376-6.448 4.065-9.495.671-1.21 1.341-2.418 1.945-3.642l6.943-20.284c2.827-6.093 4.243-7.776 11.305-9.669l1.649-.523c7.3-2.106 12.245-3.368 14.839-3.999 4.612-1.113 9.378-2.229 12.44-2.946 1.553-.364 2.667-.625 3.101-.731l4.945-.946c2.594-.523 13.191-2.939 16.017-3.677 1.065-.461 2.168-.829 3.296-1.101 0 0 3.416-1.261 4.945-.315.921-.274 1.868-.45 2.826-.523.156 0 .198.022.237.019.081-.007.152-.122 1.179-.757 1.74-1.053 3.739-1.599 5.772-1.577.889-.193 1.806-.227 2.707-.101 1.541.069 3.076.244 4.593.523h.232c.454-.221.928-.396 1.417-.523.281-.169.563-.321.838-.469.411-.222.808-.436 1.161-.685.219-.131.403-.221.576-.305.385-.188.707-.346 1.209-.856l.119-.101c-.443.327-.056-.493.353-1.361.246-.521.5-1.059.587-1.376.193-.906.152-1.846-.119-2.731-4.475-1.261-7.771-1.47-12.596-1.47-1.286.024-2.565-.19-3.773-.63-1.875.226-3.763.331-5.652.315-4.991-.075-9.982.173-14.941.744-4.123.422-8.24.946-12.364 1.475-6.36.839-11.9 1.785-16.957 2.731-3.514.699-7.026 1.441-10.469 2.169-1.751.371-3.485.737-5.192 1.092-1.529.315-2.975-.845-2.594-2.207.703-2.592 1.83-5.03 2.944-7.44.198-.429.396-.856.591-1.283 1.416-2.838 5.063-13.138 5.771-15.244 1.097-3.041 2.024-6.104 2.948-9.157.959-3.172 1.916-6.332 3.056-9.443 1.285-3.435 2.374-7.041 3.446-10.588.109-.361.217-.721.326-1.0796.08-.2525.287-1.1192.553-2.2323.504-2.1132 1.22-5.1148 1.684-6.4904.411-1.2077.793-2.4422 1.175-3.6767.382-1.2348.765-2.4695 1.175-3.6775.354-1.1035.679-2.1803 1.003-3.2571.324-1.0771.648-2.1542 1.003-3.2582.215-.636.441-1.2716.667-1.9089.635-1.789 1.274-3.591 1.713-5.4512.645-2.3067 1.18-4.6134 1.718-6.9296.247-1.0595.493-2.121.751-3.1854.292-1.2106.829-2.3483 1.58-3.3422.75-.9939 1.697-1.8228 2.781-2.4353 2.051-1.2208 4.184-2.4074 6.327-3.5996 1.006-.5591 2.013-1.1195 3.015-1.6852-10.054-7.9592-20.801-15.0808-32.136-21.2592-.396 1.5681-.809 3.1378-1.223 4.7117-.757 2.8816-1.519 5.7769-2.187 8.7007-.595 2.5228-2.118 3.7842-4.593 4.8373-10.357 4.2182-21.062 7.898-31.743 11.5698-1.824.6271-3.647 1.2539-5.468 1.8832-1.478.5007-2.955 1.0041-4.43 1.5075-11.223 3.8274-22.42 7.6462-34.073 10.1545-.648.1462-1.28.3575-1.886.6307-4.593 1.4191-9.185 2.8114-13.777 4.2037s-9.184 2.7846-13.777 4.2036c-4.138 1.2884-8.285 2.5534-12.431 3.8179-8.377 2.5547-16.748 5.1079-25.019 7.8501-13.893 4.7302-27.786 9.6687-41.328 15.2377-12.132 4.939-24.027 10.407-35.802 16.065-8.8821 4.31-17.4583 9.224-25.6679 14.709-9.3967 6.242-18.1894 13.35-26.2633 21.229-6.0035 5.677-1.19 10.199-.7021 10.615 1.4431 1.168 2.6095 2.641 3.4153 4.314.3314.874.8538 1.662 1.5292 2.308 3.6242 3.236 7.8644 5.742 12.1606 8.281.3096.183.6194.366.9294.549.294.097.571.24.8211.423 6.8306 2.308 13.685 4.307 20.9618 4.409 1.1459-.004 2.2895.101 3.4153.315 1.2371.204 2.4688.306 3.7056.408l.18.014c.595 0 43.215-1.047 73.952-12.495 2.946-1.047 4.707-4.516-.595-4.938l-7.3-.631c-2.358-.142-4.724-.072-7.069.208-.72.063-1.441.133-2.164.204-2.936.288-5.904.579-9.022.326-2.039-.177-4.091-.144-6.122.101-1.541.133-3.082.323-4.633.513-2.121.261-4.259.524-6.434.647-4.713.316-9.425.417-14.251.316-7.173-.114-14.24-1.755-20.7295-4.814-1.8219-.857-3.3706-2.202-4.4744-3.885-2.38-3.784-2.2372-7.045.9401-9.883 2.8382-2.531 5.9411-4.832 9.0008-7.102.494-.366.987-.732 1.477-1.097.998-.732 2.084-1.412 3.168-2.092 1.095-.685 2.189-1.371 3.193-2.109l.03-.022c3.762-2.831 7.52-5.659 11.983-7.338 1.305-.483 2.565-1.081 3.766-1.785.916-.557 1.822-1.122 2.728-1.685 3.872-2.412 7.718-4.807 12.111-6.514 2.143-.797 4.195-1.818 6.123-3.047 2.826-1.993 5.89-3.784 9.419-4.516.833-.204 1.634-.522 2.38-.946 5.182-2.975 10.835-5.152 16.606-7.253 5.177-1.892 10.24-3.677 15.423-5.468 2.053-.711 4.069-1.447 6.088-2.184 2.153-.786 4.309-1.573 6.514-2.332 1.887-.665 3.817-1.274 5.745-1.8823 2.641-.8337 5.279-1.666 7.797-2.6395 5.955-2.3079 12.05-4.2375 18.249-5.7775 2.939-.6919 5.727-1.6534 8.529-2.6197 1.463-.5045 2.93-1.0104 4.424-1.4798.413-.1041.797-.2349 1.182-.3665.387-.1317.775-.2642 1.198-.3713.546-.1439 1.095-.2817 1.645-.4197 2.658-.6666 5.338-1.3388 7.774-2.7338.876-.4499 1.841-.6998 2.826-.7319 3.094-.0907 5.933-.9327 8.732-1.7631.505-.15 1.009-.2996 1.514-.4443 1.51-.4136 3.019-.7765 4.528-1.1394 1.552-.3734 3.105-.7467 4.659-1.1752 1.065-.3242 2.131-.6573 3.199-.991 4.124-1.289 8.279-2.5873 12.58-3.4239.486-.127.959-.3024 1.41-.5236 5.772-1.6779 11.543-3.2546 17.315-4.8314.094-.0249.189-.0512.286-.0778 1.125-.31 2.423-.6673 3.831.4943-.063.8141-.181 1.6231-.351 2.4217-.256.745-.507 1.4862-.757 2.2245-1.018 3.0059-2.02 5.9618-3.247 8.9139-3.418 8.2262-6.868 16.4524-10.317 24.6773-3.204 7.642-6.408 15.283-9.586 22.923-1.475 3.314-2.733 6.721-3.767 10.198-.998 3.557-2.619 6.991-4.227 10.396-.482 1.021-.963 2.039-1.425 3.057-.674 1.506-1.471 2.96-2.258 4.397-.31.567-.62 1.132-.919 1.696-.595 1.154-1.297 2.415-2.005 3.57-.447.816-.844 1.659-1.191 2.523-.708 1.677-3.653 5.146-10.114 7.669-4.304 1.659-8.423 3.149-12.297 4.551-2.269.82-4.453 1.611-6.541 2.387-1.977.786-6.438 2.803-8.434 3.706-.407.184-.712.322-.872.393-3.647 1.47-7.182 2.94-10.71 4.415-.526.223-1.046.445-1.563.666-1.678.717-3.319 1.419-5.03 2.065-11.007 4.591-21.86 9.746-32.419 14.761-1.524.724-3.042 1.445-4.554 2.161l-2.38 1.154c-12.834 6.2-24.99 12.93-37.449 19.861-1.824 1-3.619 2.025-5.414 3.05-1.796 1.025-3.591 2.05-5.415 3.049-3.064 1.785-3.296 2.731-2.38 5.147l.351.946c.514 1.101.87 2.269 1.059 3.469.064.576.27 1.126.599 1.603.329.476.772.864 1.287 1.128.235.158.5.342.765.526.264.185.529.369.764.527.377.307.775.587 1.19.839 2.594 1.785 5.891 3.469 10.246 2.523.062.007.126.002.186-.015.06-.018.116-.047.165-.086.742-.108 1.496-.108 2.237 0h.827c1.598.157 3.195-.293 4.475-1.262 1.351-.944 2.869-1.623 4.474-1.999l.47-.107c2.8-.832 5.661-1.775 8.495-2.708 1.099-.363 2.194-.724 3.28-1.076l4.362-1.47.351-.101 3.177-1.577c2.346-1.132 4.626-2.396 6.831-3.784l1.886-1.261c1.19-.738 11.067-6.73 14.363-8.33.294-.183.613-.324.946-.417 10.008-5.569 28.144-15.137 48.278-24.99 4.356-2.1 5.415-.845 3.767 2.731l-21.902 41.091-1.428 2.546c-.054.096-.22.356-.465.739-1.377 2.156-5.241 8.204-5.545 10.614-.206 1.222-.881 2.314-1.88 3.046-1.598 1.006-2.539 2.48-3.436 3.886-.228.359-.454.712-.687 1.053-.158.235-.318.471-.48.707-1.281 1.877-2.597 3.805-2.697 6.231-.067 1.013-.395 1.991-.953 2.839s-1.327 1.536-2.231 1.998c-1.462.802-2.174 1.991-2.951 3.291-.036.059-.071.118-.107.178-2.635 4.153-5.506 8.152-8.598 11.977-1.658 2.036-3.479 4-5.295 5.959-1.279 1.38-2.556 2.757-3.773 4.156-1.136 1.311-2.215 2.673-3.296 4.037-1.607 2.028-3.219 4.062-5.034 5.947-.79.789-1.397 1.707-2 2.62-.927 1.402-1.847 2.794-3.414 3.687-2.037 1.218-3.581 3.114-4.361 5.355-.593 1.415-1.523 2.386-2.507 3.412-.183.191-.367.383-.552.581-.427.435-.879.85-1.328 1.261-1.281 1.176-2.538 2.33-3.146 3.885.428.385.814.692 1.162.969.223.177.43.342.623.507-.197.556-.613 1.032-1.026 1.503-.832.952-1.651 1.888-.628 3.436.238.315.119.63-.232.839-.703.429-1.29.991-1.879 1.554-.993.949-1.988 1.901-3.542 2.23-.148.068-.351-.036-.568-.149-.121-.063-.248-.128-.372-.167-.059-.63-.147-1.288-.235-1.945-.088-.658-.175-1.315-.235-1.946.048-.584.207-1.154.47-1.678.06-.131.179-.256.301-.385.365-.383.76-.798-.301-1.507-1.4 1.349-2.825 2.674-4.249 3.997-1.572 1.461-3.143 2.921-4.676 4.41-.075.068-.055.26-.03.498.014.139.03.293.03.448.902.259 1.691.815 2.237 1.577-1.297 4.623-2.38 5.677-6.003 6.2.125-.449.25-.885.375-1.322.227-.789.454-1.581.684-2.462-1.876-.249-2.768.611-3.639 1.45-.234.226-.467.45-.716.65-.809.636-1.618 1.281-2.431 1.93-2.15 1.716-4.332 3.458-6.637 5.115-1.809 1.305-3.678 2.498-5.566 3.703-.696.444-1.394.889-2.092 1.343-.397.252-.788.505-1.176.757-1.223.792-2.427 1.571-3.768 2.289l-8.908 5.016c-.849.515-1.776.942-2.705 1.371-2.294 1.057-4.6 2.121-5.773 4.514-1.86.199-3.016 1.278-4.178 2.365-.678.633-1.359 1.269-2.183 1.734-.746.338-1.586.411-2.38.208-.509-.151-.9051-.58-1.2592-.963-.1344-.146-.2627-.285-.3888-.399-2.0183.625-2.8593 1.892-3.6941 3.15-.285.429-.5692.857-.8993 1.259-2.5882 2.975-5.4145 5.355-10.2399 5.045-2.8854-.188-5.7659.4-8.0344 2.076 3.629 3.206 7.3618 6.297 11.1928 9.267z" fill="#000" fill-opacity=".75"/><g fill="#cc9d39"><path d="m215.028 114h-100.028v100.028h100.028z"/><path d="m340.938 114h-100.028v100.028h100.028z"/><path d="m217.22 237.712h-100.028v100.028h100.028z"/><path d="m343.13 237.712h-100.027v100.028h100.027z"/></g></svg>